<svg width="251" height="75" viewBox="0 0 251 75" fill="none" xmlns="http://www.w3.org/2000/svg">
<path d="M169.773 17.4668V27.8668C171.093 26.0568 173.233 25.0368 175.473 25.1668C177.693 25.0768 179.813 26.1368 181.073 27.9668C181.773 29.1668 181.973 30.4668 181.973 33.9668V45.3668H177.973V34.6668C178.053 33.2468 177.883 31.8268 177.473 30.4668C176.833 29.3068 175.593 28.6068 174.273 28.6668C172.673 28.6668 171.213 29.5468 170.473 30.9668C169.973 32.1668 169.733 33.4668 169.773 34.7668V45.2668H165.873V17.4668H169.773Z" fill="white"/>
<path d="M193.373 36.3668C193.573 40.2668 195.373 42.4668 198.673 42.4668C200.483 42.5868 202.173 41.5368 202.873 39.8668L206.473 40.0668C205.373 43.6668 202.573 45.7668 198.473 45.7668C192.873 45.7668 189.273 41.7668 189.273 35.5668C189.273 29.3668 192.873 24.9668 198.373 24.9668C203.873 24.9668 206.873 28.9668 206.873 35.3668V36.2668H193.373V36.3668ZM202.673 33.4668C202.373 30.1668 200.773 28.4668 198.173 28.4668C195.573 28.4668 194.173 30.0668 193.473 33.4668H202.673Z" fill="white"/>
<path d="M215.873 25.667L219.673 31.867L223.573 25.667H228.473L222.273 34.867L229.373 45.367H224.473L219.773 38.067L215.073 45.367H210.173L217.373 34.867L211.173 25.667H215.873Z" fill="white"/>
<path d="M234.573 31.267C234.603 29.567 235.413 27.987 236.773 26.967C238.493 25.737 240.563 25.107 242.673 25.167C245.973 25.167 248.373 26.267 249.273 28.267C249.863 29.757 250.103 31.367 249.973 32.967V40.667C249.973 43.267 250.073 44.267 250.673 45.467H246.873C246.673 44.687 246.563 43.877 246.573 43.067C245.473 45.067 243.573 46.067 240.873 46.067C236.673 46.067 234.073 43.867 234.073 40.367C234.073 37.667 235.573 35.567 238.573 34.467C240.973 33.617 243.453 33.007 245.973 32.667V31.967C245.973 29.467 244.973 28.467 242.473 28.467C240.173 28.467 238.973 29.367 238.673 31.167H234.573V31.267ZM245.773 35.367C240.073 36.267 237.973 37.367 237.973 39.767C237.973 41.567 239.373 42.567 241.373 42.567C242.963 42.657 244.463 41.797 245.173 40.367C245.543 39.237 245.713 38.057 245.673 36.867V35.367H245.773Z" fill="white"/>
<path d="M90.9729 45.067C91.9529 46.007 92.4929 47.307 92.4729 48.667C92.5029 49.357 92.3729 50.047 92.0729 50.667C91.8529 51.257 91.4729 51.777 90.9729 52.167C90.4429 52.637 89.8329 53.007 89.1729 53.267C88.4529 53.467 87.7129 53.577 86.9729 53.567H80.9729C80.2229 53.587 79.4729 53.457 78.7729 53.167C78.1229 52.897 77.5129 52.527 76.9729 52.067C76.5229 51.637 76.1429 51.127 75.8729 50.567C75.6129 49.927 75.4829 49.257 75.4729 48.567C75.4729 48.017 75.5729 47.477 75.7729 46.967C75.9229 46.497 76.1929 46.077 76.5729 45.767C76.9729 45.337 77.4129 44.937 77.8729 44.567C78.1729 44.367 78.2729 44.167 78.2729 44.067C78.2229 43.707 78.0829 43.357 77.8729 43.067C77.5729 42.587 77.4429 42.027 77.4729 41.467C77.4729 41.097 77.5529 40.717 77.6729 40.367C77.7529 40.067 77.8529 39.757 77.9729 39.467C78.0529 39.287 78.1529 39.117 78.2729 38.967C78.3829 38.857 78.4429 38.717 78.4729 38.567C78.3229 38.287 78.1629 38.017 77.9729 37.767C77.6729 37.367 77.0729 36.767 76.3729 35.867C76.0929 35.457 75.8629 35.027 75.6729 34.567C75.4429 33.857 75.3429 33.117 75.3729 32.367V31.967C75.3729 31.047 75.5429 30.127 75.8729 29.267C76.1929 28.427 76.7029 27.677 77.3729 27.067C77.9929 26.437 78.7429 25.967 79.5729 25.667C80.4429 25.357 81.3529 25.187 82.2729 25.167C83.0729 25.107 83.8729 25.277 84.5729 25.667C85.2229 26.067 85.8229 26.537 86.3729 27.067C86.7729 27.467 87.0729 27.767 87.3729 27.767C87.6729 27.767 87.6729 27.667 87.6729 27.367V25.567C87.6729 25.267 87.7729 25.167 88.0729 25.167H89.5729C89.8729 25.167 89.9729 25.267 89.9729 25.567V32.567C89.9729 33.487 89.8129 34.407 89.4729 35.267C89.1229 36.097 88.6129 36.847 87.9729 37.467C87.3129 38.117 86.5329 38.627 85.6729 38.967C84.6729 39.307 83.6229 39.467 82.5729 39.467H81.8729C81.6329 39.467 81.4029 39.437 81.1729 39.367C80.2629 39.657 79.6529 40.517 79.6729 41.467C79.7029 42.407 80.2929 43.237 81.1729 43.567H86.5729C88.1829 43.457 89.7629 43.997 90.9729 45.067ZM87.5729 32.167C87.5729 31.557 87.4629 30.947 87.2729 30.367C87.0729 29.817 86.7229 29.337 86.2729 28.967C85.8729 28.547 85.4029 28.207 84.8729 27.967C84.2929 27.767 83.6829 27.657 83.0729 27.667C82.4229 27.667 81.7829 27.767 81.1729 27.967C80.6229 28.167 80.1429 28.517 79.7729 28.967C79.3529 29.367 79.0129 29.837 78.7729 30.367C78.5629 30.947 78.4529 31.557 78.4729 32.167V32.567C78.4729 33.177 78.5729 33.787 78.7729 34.367C78.9529 34.927 79.3029 35.417 79.7729 35.767C80.1729 36.187 80.6429 36.527 81.1729 36.767C81.7529 36.977 82.3629 37.087 82.9729 37.067C83.5829 37.067 84.1929 36.967 84.7729 36.767C85.3429 36.617 85.8429 36.257 86.1729 35.767C86.5929 35.367 86.9329 34.897 87.1729 34.367C87.3829 33.787 87.4929 33.177 87.4729 32.567V32.167H87.5729ZM88.9729 50.467C89.4929 49.977 89.7829 49.287 89.7729 48.567C89.8129 47.847 89.5129 47.147 88.9729 46.667C88.4529 46.187 87.7829 45.897 87.0729 45.867H81.0729C80.3729 45.807 79.7029 46.117 79.2729 46.667C78.7729 47.177 78.4829 47.857 78.4729 48.567C78.4129 49.297 78.7129 49.997 79.2729 50.467C79.7529 50.947 80.3929 51.237 81.0729 51.267H87.0729C87.7929 51.307 88.4929 51.007 88.9729 50.467Z" fill="white"/>
<path d="M109.073 28.0669C108.833 28.0669 108.603 28.0369 108.373 27.9669C108.173 27.9669 107.873 27.8669 107.373 27.8669C106.723 27.8669 106.083 27.9669 105.473 28.1669C104.913 28.3469 104.423 28.6969 104.073 29.1669C103.653 29.5669 103.313 30.0369 103.073 30.5669C102.863 31.1469 102.753 31.7569 102.773 32.3669V43.3669C102.773 43.6669 102.673 43.7669 102.373 43.7669H100.373C100.073 43.7669 99.9729 43.6669 99.9729 43.3669V25.4669C99.9729 25.1669 100.073 25.0669 100.373 25.0669H101.873C102.173 25.0669 102.273 25.1669 102.273 25.4669V27.6669C102.273 27.9669 102.373 28.0669 102.573 28.0669C102.773 28.0669 103.073 27.8669 103.573 27.3669C104.133 26.7869 104.733 26.2569 105.373 25.7669C105.643 25.5569 105.953 25.3869 106.273 25.2669C106.633 25.1569 107.003 25.0969 107.373 25.0669H108.873C109.173 25.0669 109.273 25.1669 109.273 25.4669V27.6669C109.473 27.8669 109.273 28.0669 109.073 28.0669Z" fill="white"/>
<path d="M130.473 44.3668H128.973C128.673 44.3668 128.573 44.2668 128.573 43.9668V42.0668C128.573 41.7668 128.473 41.6668 128.273 41.6668C128.073 41.6668 127.873 41.7668 127.573 42.0668C127.323 42.4768 126.983 42.8168 126.573 43.0668C125.633 43.9568 124.373 44.4268 123.073 44.3668C122.153 44.3668 121.233 44.1968 120.373 43.8668C119.543 43.5768 118.783 43.0968 118.173 42.4668C117.523 41.8668 117.043 41.1068 116.773 40.2668C116.463 39.3668 116.293 38.4168 116.273 37.4668V25.8668C116.273 25.5668 116.373 25.4668 116.673 25.4668H118.673C118.973 25.4668 119.073 25.5668 119.073 25.8668V37.3668C119.073 37.9768 119.173 38.5868 119.373 39.1668C119.553 39.7268 119.903 40.2168 120.373 40.5668C120.773 40.9868 121.243 41.3268 121.773 41.5668C122.353 41.7768 122.963 41.8868 123.573 41.8668C124.223 41.8668 124.863 41.7668 125.473 41.5668C126.033 41.3868 126.523 41.0368 126.873 40.5668C127.293 40.1668 127.633 39.6968 127.873 39.1668C128.083 38.5868 128.193 37.9768 128.173 37.3668V25.8668C128.173 25.5668 128.273 25.4668 128.573 25.4668H130.573C130.873 25.4668 130.973 25.5668 130.973 25.8668V44.0668C130.973 44.2668 130.873 44.3668 130.473 44.3668Z" fill="white"/>
<path d="M154.873 42.0669C153.703 43.3769 152.023 44.1069 150.273 44.0669C149.803 44.0569 149.333 43.9869 148.873 43.8669C148.513 43.8169 148.173 43.6769 147.873 43.4669C147.223 43.0769 146.613 42.6069 146.073 42.0669C145.813 41.7469 145.463 41.5069 145.073 41.3669C144.873 41.3669 144.773 41.5669 144.773 41.8669V53.1669C144.773 53.4669 144.673 53.5669 144.373 53.5669H142.373C142.073 53.5669 141.973 53.4669 141.973 53.1669V25.4669C141.973 25.1669 142.073 25.0669 142.373 25.0669H143.873C144.173 25.0669 144.273 25.1669 144.273 25.4669V27.2669C144.273 27.5669 144.373 27.6669 144.573 27.6669C144.773 27.6269 144.943 27.5169 145.073 27.3669C145.323 27.1169 145.583 26.8769 145.873 26.6669C146.333 26.2469 146.833 25.8769 147.373 25.5669C148.083 25.2069 148.873 25.0369 149.673 25.0669C150.593 25.0669 151.513 25.2269 152.373 25.5669C153.223 25.8769 154.003 26.3469 154.673 26.9669C155.353 27.5669 155.863 28.3169 156.173 29.1669C156.493 30.0669 156.663 31.0169 156.673 31.9669V36.8669C156.933 38.7869 156.263 40.7169 154.873 42.0669ZM154.173 32.1669C154.173 31.5569 154.063 30.9469 153.873 30.3669C153.673 29.8169 153.323 29.3369 152.873 28.9669C152.473 28.5469 152.003 28.2069 151.473 27.9669C150.863 27.7569 150.223 27.6569 149.573 27.6669C148.923 27.6669 148.283 27.7669 147.673 27.9669C147.113 28.1469 146.623 28.4969 146.273 28.9669C145.853 29.3669 145.513 29.8369 145.273 30.3669C145.063 30.9469 144.953 31.5569 144.973 32.1669V37.0669C144.973 37.6769 145.073 38.2869 145.273 38.8669C145.453 39.4269 145.803 39.9169 146.273 40.2669C146.673 40.6869 147.143 41.0269 147.673 41.2669C148.283 41.4769 148.923 41.5769 149.573 41.5669C150.213 41.5669 150.863 41.4669 151.473 41.2669C152.033 41.0869 152.523 40.7369 152.873 40.2669C153.293 39.8669 153.633 39.3969 153.873 38.8669C154.083 38.2869 154.193 37.6769 154.173 37.0669V32.1669Z" fill="white"/>
<path d="M32.6027 50.8068C31.7927 50.8068 30.9927 50.5768 30.3027 50.1468L22.8027 45.5068C21.4727 44.6868 20.6827 43.2168 20.7327 41.6568L21.0027 32.8368C21.0427 31.2868 21.9127 29.8668 23.2727 29.1168L31.0427 24.9468C31.6827 24.6068 32.3927 24.4268 33.1127 24.4268C33.9227 24.4268 34.7227 24.6468 35.4127 25.0768L42.9227 29.7168C44.2527 30.5368 45.0527 32.0068 45.0127 33.5668L44.7427 42.3968C44.6927 43.9568 43.8127 45.3668 42.4427 46.1068L34.6727 50.2868C34.0327 50.6268 33.3227 50.8068 32.6027 50.8068ZM33.1427 26.0068C32.6827 26.0068 32.2327 26.1268 31.8327 26.3468L24.0527 30.5668C23.1827 31.0368 22.6327 31.9368 22.5927 32.9268L22.3227 41.7568C22.2927 42.7468 22.7927 43.6768 23.6327 44.2068L31.1427 48.8468C31.5827 49.1168 32.0827 49.2668 32.6027 49.2668C33.0627 49.2668 33.5127 49.1468 33.9127 48.9368L41.6927 44.7568C42.5627 44.2868 43.1227 43.3868 43.1527 42.3968L43.4227 33.5668C43.4527 32.5768 42.9527 31.6468 42.1127 31.1268L34.6027 26.4768C34.1727 26.1868 33.6627 26.0268 33.1427 26.0068Z" fill="url(#paint0_linear_4_165)"/>
<path d="M27.9927 54.2466C27.1527 54.2466 26.3527 53.8866 25.8027 53.2466L16.3327 42.1466C15.6627 41.3666 15.4727 40.2866 15.8127 39.3166L20.6827 25.5666C21.0327 24.5966 21.8727 23.8866 22.8827 23.6966L37.2727 21.0266C37.4427 20.9966 37.6227 20.9766 37.8027 20.9766C38.6427 20.9766 39.4427 21.3366 39.9927 21.9766L49.4627 33.0766C50.1327 33.8666 50.3227 34.9466 49.9827 35.9166L45.0627 49.6766C44.7127 50.6466 43.8827 51.3666 42.8627 51.5666L28.5227 54.1966C28.3527 54.2266 28.1727 54.2466 27.9927 54.2466ZM37.7527 22.5666C37.6727 22.5666 37.5927 22.5666 37.5127 22.5666L23.1627 25.2466C22.7027 25.3266 22.3227 25.6366 22.1627 26.0766L17.2727 39.8366C17.1127 40.2666 17.2027 40.7566 17.5027 41.1066L26.9727 52.2066C27.2227 52.4966 27.5927 52.6566 27.9727 52.6566H28.2127L42.5627 49.9966C43.0227 49.9166 43.4027 49.6066 43.5627 49.1666L48.4327 35.4066C48.5927 34.9766 48.5027 34.4966 48.2027 34.1466L38.7327 23.0466C38.4927 22.7466 38.1327 22.5766 37.7527 22.5666Z" fill="url(#paint1_linear_4_165)"/>
<path d="M40.2728 57.7168H39.9228L22.7428 56.3568C21.1328 56.2268 19.7128 55.2468 19.0128 53.7968L11.5728 38.2068C10.8828 36.7468 11.0128 35.0368 11.9228 33.7068L21.7128 19.4668C22.5428 18.2268 23.9328 17.4768 25.4328 17.4668H25.7828L43.0028 18.8668C44.6128 18.9968 46.0328 19.9768 46.7328 21.4268L54.1728 37.0168C54.8628 38.4768 54.7328 40.1868 53.8128 41.5168L44.0328 55.7568C43.1828 56.9968 41.7728 57.7368 40.2728 57.7168ZM25.4328 19.0968C24.4728 19.0968 23.5628 19.5668 23.0228 20.3668L13.2728 34.5668C12.6428 35.4468 12.5428 36.5968 13.0128 37.5668L20.4528 53.1568C20.9028 54.0968 21.8228 54.7268 22.8628 54.8068L40.0828 56.1568H40.2728C41.2328 56.1568 42.1428 55.6868 42.6828 54.8868L52.4628 40.6468C53.0528 39.7868 53.1428 38.6768 52.6928 37.7368L45.2728 22.1168C44.8228 21.1668 43.9028 20.5368 42.8628 20.4568L25.6628 19.1068H25.4328V19.0968Z" fill="url(#paint2_linear_4_165)"/>
<path d="M39.0327 63.1569C38.6127 63.1569 38.2027 63.1069 37.7927 63.0169L17.4127 58.3669C15.4727 57.9169 13.9227 56.4669 13.3327 54.5669L7.1727 34.5669C6.5927 32.6669 7.0627 30.5969 8.4127 29.1369L22.6327 13.8569C23.6827 12.7169 25.1627 12.0669 26.7127 12.0669C27.1327 12.0669 27.5427 12.1169 27.9527 12.2069L48.3327 16.8569C50.2627 17.3069 51.8227 18.7469 52.4127 20.6469L58.5727 40.6469C59.1527 42.5469 58.6827 44.6169 57.3327 46.0769L43.1127 61.3769C42.0627 62.5069 40.5827 63.1569 39.0327 63.1569ZM26.7127 13.6569C25.6027 13.6569 24.5427 14.1269 23.7927 14.9369L9.5827 30.2569C8.6227 31.2969 8.2827 32.7769 8.6927 34.1369L14.8527 54.1369C15.2727 55.4969 16.3827 56.5269 17.7727 56.8469L38.1527 61.4669C38.4427 61.5269 38.7327 61.5669 39.0327 61.5669C40.1427 61.5669 41.1927 61.1069 41.9527 60.2969L56.1627 44.9669C57.1227 43.9269 57.4627 42.4469 57.0527 41.0869L50.8927 21.0869C50.4727 19.7269 49.3627 18.6969 47.9727 18.3769L27.5927 13.7569C27.3027 13.6969 27.0127 13.6569 26.7127 13.6569Z" fill="url(#paint3_linear_4_165)"/>
<path d="M37.5028 68.4168C36.8428 68.4168 36.1828 68.3068 35.5528 68.0768L11.6328 59.6268C9.66276 58.9168 8.21275 57.2268 7.82275 55.1668L3.19275 30.2268C2.82275 28.1568 3.59275 26.0468 5.19275 24.6968L24.4328 8.21679C25.5028 7.29679 26.8628 6.79679 28.2728 6.80679C28.9528 6.80679 29.6328 6.91679 30.2728 7.14679L54.1128 15.5668C56.0828 16.2668 57.5328 17.9668 57.9228 20.0268L62.5528 44.9668C62.9228 47.0368 62.1528 49.1468 60.5528 50.4968L41.2728 67.0068C40.2228 67.9068 38.8828 68.4068 37.5028 68.4168ZM28.2728 8.39679C27.2528 8.39679 26.2728 8.74679 25.4928 9.39679L6.18276 25.9068C5.03276 26.8968 4.48275 28.4168 4.75275 29.9068L9.39275 54.8468C9.67275 56.3468 10.7228 57.5868 12.1628 58.0968L36.0828 66.5668C36.5428 66.7268 37.0228 66.8068 37.5028 66.8068C38.5228 66.8168 39.5028 66.4668 40.2828 65.8068L59.5628 49.3168C60.7128 48.3268 61.2628 46.8068 60.9928 45.3168L56.3528 20.3468C56.0728 18.8468 55.0228 17.6068 53.5828 17.0968L29.6628 8.64679C29.2128 8.48679 28.7428 8.39679 28.2728 8.39679Z" fill="url(#paint4_linear_4_165)"/>
<path d="M32.5528 74.2568C31.3428 74.2568 30.1428 73.9368 29.1028 73.3168L3.38279 58.0968C1.30279 56.8568 0.0427896 54.6168 0.0727896 52.1968L0.39279 22.3168C0.42279 19.8968 1.74279 17.6868 3.84279 16.4968L29.8428 1.8368C30.8528 1.2668 31.9928 0.966797 33.1528 0.966797C34.3628 0.966797 35.5528 1.2968 36.6028 1.9068L62.3628 17.1268C64.4428 18.3668 65.7028 20.6068 65.6728 23.0268L65.3528 52.9068C65.3228 55.3268 64.0028 57.5368 61.9028 58.7268L35.9028 73.3868C34.8828 73.9668 33.7228 74.2668 32.5528 74.2568ZM33.1928 2.5668C32.3028 2.5668 31.4328 2.7968 30.6628 3.2368L4.66279 17.8868C3.05279 18.7968 2.05279 20.4968 2.02279 22.3468L1.65279 52.2168C1.64279 54.0668 2.60279 55.7768 4.19279 56.7268L29.9128 71.9468C30.7128 72.4168 31.6228 72.6668 32.5528 72.6668C33.4428 72.6668 34.3128 72.4368 35.0928 72.0068L61.0928 57.3468C62.7028 56.4368 63.7128 54.7368 63.7328 52.8868L64.0628 23.0068C64.0728 21.1568 63.1128 19.4468 61.5228 18.4968L35.8328 3.2768C35.0328 2.8068 34.1228 2.5668 33.1928 2.5668Z" fill="url(#paint5_linear_4_165)"/>
<defs>
<linearGradient id="paint0_linear_4_165" x1="20.7327" y1="37.6168" x2="45.0127" y2="37.6168" gradientUnits="userSpaceOnUse">
<stop stop-color="#70C17E"/>
<stop offset="0.17" stop-color="#6AB682"/>
<stop offset="0.48" stop-color="#5B978D"/>
<stop offset="0.88" stop-color="#43669F"/>
<stop offset="1" stop-color="#3B56A5"/>
</linearGradient>
<linearGradient id="paint1_linear_4_165" x1="15.6427" y1="37.6166" x2="50.1027" y2="37.6166" gradientUnits="userSpaceOnUse">
<stop stop-color="#70C17E"/>
<stop offset="0.17" stop-color="#6AB682"/>
<stop offset="0.48" stop-color="#5B978D"/>
<stop offset="0.88" stop-color="#43669F"/>
<stop offset="1" stop-color="#3B56A5"/>
</linearGradient>
<linearGradient id="paint2_linear_4_165" x1="11.1328" y1="37.5968" x2="54.6128" y2="37.5968" gradientUnits="userSpaceOnUse">
<stop stop-color="#70C17E"/>
<stop offset="0.17" stop-color="#6AB682"/>
<stop offset="0.48" stop-color="#5B978D"/>
<stop offset="0.88" stop-color="#43669F"/>
<stop offset="1" stop-color="#3B56A5"/>
</linearGradient>
<linearGradient id="paint3_linear_4_165" x1="6.9327" y1="37.6169" x2="58.8227" y2="37.6169" gradientUnits="userSpaceOnUse">
<stop stop-color="#70C17E"/>
<stop offset="0.17" stop-color="#6AB682"/>
<stop offset="0.48" stop-color="#5B978D"/>
<stop offset="0.88" stop-color="#43669F"/>
<stop offset="1" stop-color="#3B56A5"/>
</linearGradient>
<linearGradient id="paint4_linear_4_165" x1="3.10275" y1="37.6068" x2="62.6428" y2="37.6068" gradientUnits="userSpaceOnUse">
<stop stop-color="#70C17E"/>
<stop offset="0.17" stop-color="#6AB682"/>
<stop offset="0.48" stop-color="#5B978D"/>
<stop offset="0.88" stop-color="#43669F"/>
<stop offset="1" stop-color="#3B56A5"/>
</linearGradient>
<linearGradient id="paint5_linear_4_165" x1="0.0727896" y1="37.6168" x2="65.6728" y2="37.6168" gradientUnits="userSpaceOnUse">
<stop stop-color="#70C17E"/>
<stop offset="0.17" stop-color="#6AB682"/>
<stop offset="0.48" stop-color="#5B978D"/>
<stop offset="0.88" stop-color="#43669F"/>
<stop offset="1" stop-color="#3B56A5"/>
</linearGradient>
</defs>
</svg>
